<?xml version="1.0" encoding="UTF-8" standalone="no"?>
<svg width="10px" height="10px" viewBox="0 0 10 10" version="1.1" xmlns="http://www.w3.org/2000/svg" xmlns:xlink="http://www.w3.org/1999/xlink">
    <!-- Generator: sketchtool 39.1 (31720) - http://www.bohemiancoding.com/sketch -->
    <title>6D27F877-9D0B-4CD0-BA56-85F3B20AB69A</title>
    <desc>Created with sketchtool.</desc>
    <defs></defs>
    <g id="Page-1" stroke="none" stroke-width="1" fill="none" fill-rule="evenodd">
        <g id="main" transform="translate(-903.000000, -45.000000)" fill="#515151">
            <g id="Settings" transform="translate(510.000000, 27.000000)">
                <path d="M397.877627,21.5004058 L394.66488,18.287659 C394.280175,17.9029537 393.666251,17.9057717 393.285856,18.2861664 C392.902809,18.6692132 392.90613,19.2839711 393.287349,19.6651902 L396.500096,22.877937 L393.287349,26.0906838 C392.90613,26.4719029 392.902809,27.0866608 393.285856,27.4697076 C393.666251,27.8501023 394.280175,27.8529203 394.66488,27.468215 L397.877627,24.2554682 L401.090374,27.468215 C401.475079,27.8529203 402.089003,27.8501023 402.469397,27.4697076 C402.852444,27.0866608 402.849124,26.4719029 402.467905,26.0906838 L399.255158,22.877937 L402.467905,19.6651902 C402.849124,19.2839711 402.852444,18.6692132 402.469397,18.2861664 C402.089003,17.9057717 401.475079,17.9029537 401.090374,18.287659 L397.877627,21.5004058 L397.877627,21.5004058 Z" id="Combined-Shape"></path>
            </g>
        </g>
    </g>
</svg>