<?xml version="1.0" encoding="UTF-8" standalone="no"?>
<svg width="15px" height="15px" viewBox="0 0 15 15" version="1.1" xmlns="http://www.w3.org/2000/svg" xmlns:xlink="http://www.w3.org/1999/xlink">
    <!-- Generator: sketchtool 39.1 (31720) - http://www.bohemiancoding.com/sketch -->
    <title>8836B413-4740-49BD-938B-77A46C423711</title>
    <desc>Created with sketchtool.</desc>
    <defs></defs>
    <g id="Page-1" stroke="none" stroke-width="1" fill="none" fill-rule="evenodd">
        <g id="main" transform="translate(-31.000000, -12.000000)" fill="#FFFFFF">
            <g id="Group-6" transform="translate(10.000000, 4.000000)">
                <g id="Group-5" transform="translate(21.000000, 8.000000)">
                    <path d="M7.5,15 C11.6421356,15 15,11.6421356 15,7.5 C15,3.35786438 11.6421356,0 7.5,0 C3.35786438,0 0,3.35786438 0,7.5 C0,11.6421356 3.35786438,15 7.5,15 Z M7.5,13.5 C4.1862915,13.5 1.5,10.8137085 1.5,7.5 C1.5,4.1862915 4.1862915,1.5 7.5,1.5 C10.8137085,1.5 13.5,4.1862915 13.5,7.5 C13.5,10.8137085 10.8137085,13.5 7.5,13.5 Z M10.1896552,6.98275862 L8.01724138,6.98275862 L8.01724138,4.81034483 C8.01724138,4.5245559 7.78578892,4.5 7.5,4.5 C7.21421108,4.5 6.98275862,4.5245559 6.98275862,4.81034483 L6.98275862,6.98275862 L4.81034483,6.98275862 C4.5245559,6.98275862 4.5,7.21421108 4.5,7.5 C4.5,7.78578892 4.5245559,8.01724138 4.81034483,8.01724138 L6.98275862,8.01724138 L6.98275862,10.1896552 C6.98275862,10.4754441 7.21421108,10.5 7.5,10.5 C7.78578892,10.5 8.01724138,10.4754441 8.01724138,10.1896552 L8.01724138,8.01724138 L10.1896552,8.01724138 C10.4754441,8.01724138 10.5,7.78578892 10.5,7.5 C10.5,7.21421108 10.4754441,6.98275862 10.1896552,6.98275862 Z" id="Combined-Shape"></path>
                </g>
            </g>
        </g>
    </g>
</svg>