<?xml version="1.0" encoding="UTF-8" standalone="no"?>
<svg width="17px" height="18px" viewBox="0 0 17 18" version="1.1" xmlns="http://www.w3.org/2000/svg" xmlns:xlink="http://www.w3.org/1999/xlink">
    <!-- Generator: sketchtool 39.1 (31720) - http://www.bohemiancoding.com/sketch -->
    <title>2AA12919-2F68-4928-A515-44F58DBF132C</title>
    <desc>Created with sketchtool.</desc>
    <defs>
        <path d="M1376.85479,16.6642756 C1376.00001,18.9907154 1376.03193,22.8398401 1376.30352,25.5878919 C1376.41898,26.7561709 1375.75156,27.7329857 1375.75156,27.7329857 L1391.20637,23.5918809 C1391.20637,23.5918809 1390.14376,23.0889478 1389.66521,22.0309244 C1388.52909,19.5190621 1386.62533,16.1494536 1384.71659,14.5577136 C1384.03731,13.991247 1383.28165,13.6326704 1382.51132,13.4654462 C1382.5067,13.2875664 1382.48118,13.1073291 1382.43307,12.9277794 C1382.10407,11.6999272 1380.85301,10.9848112 1379.63365,11.3115353 C1378.4058,11.6405373 1377.69069,12.8916011 1378.01741,14.1109522 C1378.0656,14.2908031 1378.13358,14.4596531 1378.21833,14.6158395 C1377.63489,15.1458058 1377.15981,15.834129 1376.85479,16.6642756 Z M1384.09901,28.2923197 C1385.92803,27.8022335 1387.0865,25.8789689 1387.0865,25.8789689 L1383.83648,26.7498113 L1380.46301,27.6537281 C1380.46301,27.6537281 1382.26998,28.7824059 1384.09901,28.2923197 Z" id="path-1"></path>
        <mask id="mask-2" maskContentUnits="userSpaceOnUse" maskUnits="objectBoundingBox" x="0" y="0" width="15.4548132" height="17.1831377" fill="white">
            <use xlink:href="#path-1"></use>
        </mask>
    </defs>
    <g id="Page-1" stroke="none" stroke-width="1" fill="none" fill-rule="evenodd">
        <g id="main" transform="translate(-1375.000000, -11.000000)" stroke="#6E778B" stroke-width="3">
            <use id="Combined-Shape" mask="url(#mask-2)" xlink:href="#path-1"></use>
        </g>
    </g>
</svg>