<?xml version="1.0" encoding="UTF-8" standalone="no"?>
<svg width="17px" height="17px" viewBox="0 0 17 17" version="1.1" xmlns="http://www.w3.org/2000/svg" xmlns:xlink="http://www.w3.org/1999/xlink">
    <!-- Generator: Sketch 39.1 (31720) - http://www.bohemiancoding.com/sketch -->
    <title>OhApollo logo</title>
    <desc></desc>
    <defs></defs>
    <g id="Page-1" stroke="none" stroke-width="1" fill="none" fill-rule="evenodd">
        <g id="many-comments" transform="translate(-1045.000000, -15.000000)" fill="#1486D0">
            <path d="M1059.025,23.5 C1059.025,20.4486268 1056.55137,17.975 1053.5,17.975 C1050.44863,17.975 1047.975,20.4486268 1047.975,23.5 C1047.975,26.5513732 1050.44863,29.025 1053.5,29.025 C1056.55137,29.025 1059.025,26.5513732 1059.025,23.5 L1059.025,23.5 Z M1045,23.5 C1045,18.8055796 1048.80558,15 1053.5,15 C1058.19442,15 1062,18.8055796 1062,23.5 C1062,28.1944204 1058.19442,32 1053.5,32 C1048.80558,32 1045,28.1944204 1045,23.5 L1045,23.5 Z" id="logo"></path>
        </g>
    </g>
</svg>